<mxfile host="Electron" modified="2023-06-19T02:03:13.869Z" agent="Mozilla/5.0 (Windows NT 10.0; Win64; x64) AppleWebKit/537.36 (KHTML, like Gecko) draw.io/21.2.8 Chrome/112.0.5615.165 Electron/24.2.0 Safari/537.36" etag="6dfuXZ72kfWeYrK9z234" version="21.2.8" type="device">
  <diagram name="Page-1" id="OqBWx7Xewo2-QSiFgKu3">
    <mxGraphModel dx="1083" dy="606" grid="1" gridSize="10" guides="1" tooltips="1" connect="1" arrows="1" fold="1" page="1" pageScale="1" pageWidth="850" pageHeight="1100" math="0" shadow="0">
      <root>
        <mxCell id="0" />
        <mxCell id="1" parent="0" />
        <mxCell id="TvTRgvZjCzrnaJ433CJp-1" value="Player&lt;br&gt;Attributes:&lt;br&gt;&amp;nbsp; Name&lt;br&gt;&amp;nbsp; Country&lt;br&gt;&amp;nbsp; Age&lt;br&gt;&amp;nbsp; Gender&lt;br&gt;&amp;nbsp; PointsScored&lt;br&gt;&amp;nbsp; Team" style="rounded=0;whiteSpace=wrap;html=1;verticalAlign=top;align=left;" vertex="1" parent="1">
          <mxGeometry x="50" y="60" width="200" height="160" as="geometry" />
        </mxCell>
        <mxCell id="TvTRgvZjCzrnaJ433CJp-3" value="Team&lt;br&gt;Attributes:&lt;br&gt;&amp;nbsp; PointsAccumulated&lt;br&gt;&amp;nbsp; Players&lt;br&gt;&amp;nbsp; TeamLead&lt;br&gt;&amp;nbsp; Name&lt;br&gt;&amp;nbsp; MatchesPlayed" style="rounded=0;whiteSpace=wrap;html=1;verticalAlign=top;align=left;" vertex="1" parent="1">
          <mxGeometry x="50" y="240" width="200" height="160" as="geometry" />
        </mxCell>
        <mxCell id="TvTRgvZjCzrnaJ433CJp-4" value="Match&lt;br&gt;Attributes:&lt;br&gt;&amp;nbsp; Teams&lt;br&gt;&amp;nbsp; Outcome&lt;br&gt;&amp;nbsp; MatchSerialNumber&lt;br&gt;&amp;nbsp; ColorAssignment" style="rounded=0;whiteSpace=wrap;html=1;verticalAlign=top;align=left;" vertex="1" parent="1">
          <mxGeometry x="290" y="60" width="200" height="160" as="geometry" />
        </mxCell>
        <mxCell id="TvTRgvZjCzrnaJ433CJp-5" value="Result" style="rounded=0;whiteSpace=wrap;html=1;verticalAlign=top;align=left;" vertex="1" parent="1">
          <mxGeometry x="300" y="240" width="200" height="160" as="geometry" />
        </mxCell>
        <mxCell id="TvTRgvZjCzrnaJ433CJp-6" value="Tally" style="rounded=0;whiteSpace=wrap;html=1;verticalAlign=top;align=left;" vertex="1" parent="1">
          <mxGeometry x="530" y="60" width="200" height="160" as="geometry" />
        </mxCell>
        <mxCell id="TvTRgvZjCzrnaJ433CJp-7" value="Points" style="rounded=0;whiteSpace=wrap;html=1;verticalAlign=top;align=left;" vertex="1" parent="1">
          <mxGeometry x="540" y="240" width="200" height="160" as="geometry" />
        </mxCell>
        <mxCell id="TvTRgvZjCzrnaJ433CJp-9" value="ColorAssignment&lt;br&gt;Attributes:&lt;br&gt;&amp;nbsp; BlackAssignment&lt;br&gt;&amp;nbsp; WhiteAssignment&lt;br&gt;&amp;nbsp;&amp;nbsp;" style="rounded=0;whiteSpace=wrap;html=1;verticalAlign=top;align=left;" vertex="1" parent="1">
          <mxGeometry x="50" y="420" width="200" height="160" as="geometry" />
        </mxCell>
      </root>
    </mxGraphModel>
  </diagram>
</mxfile>
